<?xml version="1.0" encoding="UTF-8" standalone="no"?>
<!DOCTYPE svg PUBLIC "-//W3C//DTD SVG 1.1//EN"
 "http://www.w3.org/Graphics/SVG/1.1/DTD/svg11.dtd">
<!-- Generated by graphviz version 2.48.0 (20210717.1556)
 -->
<!-- Pages: 1 -->
<svg width="559pt" height="92pt"
 viewBox="0.00 0.00 559.00 91.70" xmlns="http://www.w3.org/2000/svg" xmlns:xlink="http://www.w3.org/1999/xlink">
<g id="graph0" class="graph" transform="scale(1 1) rotate(0) translate(4 87.7)">
<polygon fill="white" stroke="transparent" points="-4,4 -4,-87.7 555,-87.7 555,4 -4,4"/>
<!-- &#45;1 -->
<g id="node1" class="node">
<title>&#45;1</title>
<polygon fill="lightgray" stroke="black" points="461.5,-83.7 437.5,-83.7 437.5,-65.7 461.5,-65.7 461.5,-83.7"/>
<text text-anchor="middle" x="449.5" y="-72.5" font-family="Times New Roman,serif" font-size="9.00">&#45;1</text>
</g>
<!-- 0 -->
<g id="node14" class="node">
<title>0</title>
<ellipse fill="lightblue" stroke="black" cx="225.5" cy="-14.85" rx="14.7" ry="14.7"/>
<text text-anchor="middle" x="225.5" y="-12.65" font-family="Times New Roman,serif" font-size="9.00">0</text>
</g>
<!-- &#45;1&#45;&gt;0 -->
<g id="edge1" class="edge">
<title>&#45;1&#45;&gt;0</title>
<path fill="none" stroke="red" stroke-width="0.61" d="M437.18,-68.62C434.36,-67.56 431.35,-66.52 428.5,-65.7 350.54,-43.18 325.42,-58.36 249.5,-29.7 248.63,-29.37 247.76,-29.02 246.89,-28.64"/>
<polygon fill="red" stroke="red" stroke-width="0.61" points="248.32,-25.44 237.82,-23.98 245.12,-31.66 248.32,-25.44"/>
</g>
<!-- 2 -->
<g id="node16" class="node">
<title>2</title>
<ellipse fill="lightblue" stroke="black" cx="321.5" cy="-14.85" rx="14.7" ry="14.7"/>
<text text-anchor="middle" x="321.5" y="-12.65" font-family="Times New Roman,serif" font-size="9.00">2</text>
</g>
<!-- &#45;1&#45;&gt;2 -->
<g id="edge2" class="edge">
<title>&#45;1&#45;&gt;2</title>
<path fill="none" stroke="green" stroke-width="0.56" d="M437.23,-68.15C415.72,-58.43 370.92,-38.18 343.8,-25.93"/>
<polygon fill="green" stroke="green" stroke-width="0.56" points="345.24,-22.74 334.69,-21.81 342.36,-29.12 345.24,-22.74"/>
</g>
<!-- 3 -->
<g id="node17" class="node">
<title>3</title>
<ellipse fill="lightblue" stroke="black" cx="273.5" cy="-14.85" rx="14.7" ry="14.7"/>
<text text-anchor="middle" x="273.5" y="-12.65" font-family="Times New Roman,serif" font-size="9.00">3</text>
</g>
<!-- &#45;1&#45;&gt;3 -->
<g id="edge3" class="edge">
<title>&#45;1&#45;&gt;3</title>
<path fill="none" stroke="red" stroke-width="0.54" stroke-dasharray="1,5" d="M437.13,-68.76C434.31,-67.7 431.32,-66.62 428.5,-65.7 371.11,-46.93 353.21,-52.98 297.5,-29.7 296.65,-29.34 295.78,-28.96 294.92,-28.56"/>
<polygon fill="red" stroke="red" stroke-width="0.54" points="296.37,-25.37 285.9,-23.81 293.11,-31.56 296.37,-25.37"/>
</g>
<!-- &#45;2 -->
<g id="node2" class="node">
<title>&#45;2</title>
<polygon fill="lightgray" stroke="black" points="113.5,-83.7 89.5,-83.7 89.5,-65.7 113.5,-65.7 113.5,-83.7"/>
<text text-anchor="middle" x="101.5" y="-72.5" font-family="Times New Roman,serif" font-size="9.00">&#45;2</text>
</g>
<!-- &#45;2&#45;&gt;0 -->
<g id="edge4" class="edge">
<title>&#45;2&#45;&gt;0</title>
<path fill="none" stroke="green" stroke-width="0.12" d="M113.84,-67.94C134.59,-58.26 176.76,-38.59 202.92,-26.38"/>
<polygon fill="green" stroke="green" stroke-width="0.12" points="204.5,-29.51 212.09,-22.11 201.54,-23.16 204.5,-29.51"/>
</g>
<!-- 1 -->
<g id="node15" class="node">
<title>1</title>
<ellipse fill="lightblue" stroke="black" cx="143.5" cy="-14.85" rx="14.7" ry="14.7"/>
<text text-anchor="middle" x="143.5" y="-12.65" font-family="Times New Roman,serif" font-size="9.00">1</text>
</g>
<!-- &#45;2&#45;&gt;1 -->
<g id="edge5" class="edge">
<title>&#45;2&#45;&gt;1</title>
<path fill="none" stroke="red" stroke-width="0.86" d="M107.34,-65.65C112.97,-57.89 121.73,-45.84 129.21,-35.53"/>
<polygon fill="red" stroke="red" stroke-width="0.86" points="132.06,-37.57 135.1,-27.42 126.39,-33.45 132.06,-37.57"/>
</g>
<!-- &#45;2&#45;&gt;2 -->
<g id="edge6" class="edge">
<title>&#45;2&#45;&gt;2</title>
<path fill="none" stroke="red" stroke-width="0.36" d="M113.82,-68.62C116.65,-67.57 119.65,-66.53 122.5,-65.7 198.74,-43.49 223.27,-57.9 297.5,-29.7 298.37,-29.37 299.24,-29.01 300.11,-28.63"/>
<polygon fill="red" stroke="red" stroke-width="0.36" points="301.88,-31.66 309.17,-23.97 298.68,-25.43 301.88,-31.66"/>
</g>
<!-- &#45;2&#45;&gt;3 -->
<g id="edge7" class="edge">
<title>&#45;2&#45;&gt;3</title>
<path fill="none" stroke="red" stroke-width="0.31" d="M113.87,-68.78C116.69,-67.72 119.69,-66.63 122.5,-65.7 178.19,-47.24 195.46,-52.53 249.5,-29.7 250.35,-29.34 251.21,-28.95 252.08,-28.55"/>
<polygon fill="red" stroke="red" stroke-width="0.31" points="253.89,-31.55 261.1,-23.79 250.62,-25.36 253.89,-31.55"/>
</g>
<!-- &#45;3 -->
<g id="node3" class="node">
<title>&#45;3</title>
<polygon fill="lightgray" stroke="black" points="329.5,-83.7 305.5,-83.7 305.5,-65.7 329.5,-65.7 329.5,-83.7"/>
<text text-anchor="middle" x="317.5" y="-72.5" font-family="Times New Roman,serif" font-size="9.00">&#45;3</text>
</g>
<!-- &#45;3&#45;&gt;0 -->
<g id="edge8" class="edge">
<title>&#45;3&#45;&gt;0</title>
<path fill="none" stroke="red" stroke-width="0.14" d="M305.47,-66.14C290.47,-56.7 264.58,-40.42 246.33,-28.95"/>
<polygon fill="red" stroke="red" stroke-width="0.14" points="248.15,-25.96 237.82,-23.6 244.43,-31.88 248.15,-25.96"/>
</g>
<!-- &#45;3&#45;&gt;2 -->
<g id="edge9" class="edge">
<title>&#45;3&#45;&gt;2</title>
<path fill="none" stroke="green" stroke-width="0.2" d="M318.06,-65.65C318.51,-59.05 319.18,-49.33 319.81,-40.23"/>
<polygon fill="green" stroke="green" stroke-width="0.2" points="323.32,-40.27 320.52,-30.06 316.34,-39.79 323.32,-40.27"/>
</g>
<!-- &#45;3&#45;&gt;3 -->
<g id="edge10" class="edge">
<title>&#45;3&#45;&gt;3</title>
<path fill="none" stroke="red" stroke-width="0.7" d="M311.38,-65.65C305.48,-57.89 296.31,-45.84 288.47,-35.53"/>
<polygon fill="red" stroke="red" stroke-width="0.7" points="291.14,-33.26 282.3,-27.42 285.57,-37.5 291.14,-33.26"/>
</g>
<!-- &#45;4 -->
<g id="node4" class="node">
<title>&#45;4</title>
<polygon fill="lightgray" stroke="black" points="155.5,-83.7 131.5,-83.7 131.5,-65.7 155.5,-65.7 155.5,-83.7"/>
<text text-anchor="middle" x="143.5" y="-72.5" font-family="Times New Roman,serif" font-size="9.00">&#45;4</text>
</g>
<!-- &#45;4&#45;&gt;0 -->
<g id="edge11" class="edge">
<title>&#45;4&#45;&gt;0</title>
<path fill="none" stroke="green" stroke-width="1.51" d="M154.9,-65.65C167.85,-56.52 189.23,-41.43 205.08,-30.26"/>
<polygon fill="green" stroke="green" stroke-width="1.51" points="207.51,-32.82 213.66,-24.2 203.48,-27.1 207.51,-32.82"/>
</g>
<!-- &#45;4&#45;&gt;1 -->
<g id="edge12" class="edge">
<title>&#45;4&#45;&gt;1</title>
<path fill="none" stroke="green" stroke-width="0.67" d="M143.5,-65.65C143.5,-59.05 143.5,-49.33 143.5,-40.23"/>
<polygon fill="green" stroke="green" stroke-width="0.67" points="147,-40.06 143.5,-30.06 140,-40.06 147,-40.06"/>
</g>
<!-- &#45;4&#45;&gt;2 -->
<g id="edge13" class="edge">
<title>&#45;4&#45;&gt;2</title>
<path fill="none" stroke="green" stroke-width="0.21" stroke-dasharray="1,5" d="M155.86,-68.75C158.68,-67.69 161.68,-66.61 164.5,-65.7 222.74,-46.77 240.95,-53.2 297.5,-29.7 298.36,-29.34 299.22,-28.96 300.08,-28.56"/>
<polygon fill="green" stroke="green" stroke-width="0.21" points="301.89,-31.57 309.11,-23.82 298.63,-25.37 301.89,-31.57"/>
</g>
<!-- &#45;4&#45;&gt;3 -->
<g id="edge14" class="edge">
<title>&#45;4&#45;&gt;3</title>
<path fill="none" stroke="green" stroke-width="0.22" d="M155.72,-68.86C179.69,-59.32 232.08,-38.3 249.5,-29.7 250.33,-29.29 251.17,-28.86 252.02,-28.42"/>
<polygon fill="green" stroke="green" stroke-width="0.22" points="253.89,-31.39 260.96,-23.49 250.52,-25.26 253.89,-31.39"/>
</g>
<!-- &#45;5 -->
<g id="node5" class="node">
<title>&#45;5</title>
<polygon fill="lightgray" stroke="black" points="71.5,-83.7 47.5,-83.7 47.5,-65.7 71.5,-65.7 71.5,-83.7"/>
<text text-anchor="middle" x="59.5" y="-72.5" font-family="Times New Roman,serif" font-size="9.00">&#45;5</text>
</g>
<!-- &#45;5&#45;&gt;1 -->
<g id="edge15" class="edge">
<title>&#45;5&#45;&gt;1</title>
<path fill="none" stroke="green" stroke-width="0.33" d="M71.18,-65.65C84.64,-56.38 107.01,-40.98 123.31,-29.75"/>
<polygon fill="green" stroke="green" stroke-width="0.33" points="125.4,-32.57 131.65,-24.01 121.43,-26.8 125.4,-32.57"/>
</g>
<!-- &#45;5&#45;&gt;3 -->
<g id="edge16" class="edge">
<title>&#45;5&#45;&gt;3</title>
<path fill="none" stroke="green" stroke-width="0.23" stroke-dasharray="1,5" d="M71.83,-68.64C74.65,-67.58 77.66,-66.54 80.5,-65.7 154.16,-43.96 177.81,-57.23 249.5,-29.7 250.36,-29.37 251.23,-29.01 252.1,-28.62"/>
<polygon fill="green" stroke="green" stroke-width="0.23" points="253.88,-31.65 261.16,-23.95 250.67,-25.42 253.88,-31.65"/>
</g>
<!-- &#45;6 -->
<g id="node6" class="node">
<title>&#45;6</title>
<polygon fill="lightgray" stroke="black" points="197.5,-83.7 173.5,-83.7 173.5,-65.7 197.5,-65.7 197.5,-83.7"/>
<text text-anchor="middle" x="185.5" y="-72.5" font-family="Times New Roman,serif" font-size="9.00">&#45;6</text>
</g>
<!-- &#45;6&#45;&gt;0 -->
<g id="edge17" class="edge">
<title>&#45;6&#45;&gt;0</title>
<path fill="none" stroke="red" stroke-width="0.43" d="M191.06,-65.65C196.37,-57.97 204.6,-46.08 211.68,-35.84"/>
<polygon fill="red" stroke="red" stroke-width="0.43" points="214.69,-37.63 217.5,-27.42 208.94,-33.65 214.69,-37.63"/>
</g>
<!-- &#45;6&#45;&gt;1 -->
<g id="edge18" class="edge">
<title>&#45;6&#45;&gt;1</title>
<path fill="none" stroke="red" stroke-width="0.28" d="M179.66,-65.65C174.03,-57.89 165.27,-45.84 157.79,-35.53"/>
<polygon fill="red" stroke="red" stroke-width="0.28" points="160.61,-33.45 151.9,-27.42 154.94,-37.57 160.61,-33.45"/>
</g>
<!-- &#45;6&#45;&gt;2 -->
<g id="edge19" class="edge">
<title>&#45;6&#45;&gt;2</title>
<path fill="none" stroke="red" stroke-width="0.23" d="M197.88,-68.95C225.02,-58.54 288.09,-34.23 297.5,-29.7 298.33,-29.3 299.18,-28.88 300.03,-28.44"/>
<polygon fill="red" stroke="red" stroke-width="0.23" points="301.89,-31.41 308.99,-23.54 298.53,-25.27 301.89,-31.41"/>
</g>
<!-- &#45;6&#45;&gt;3 -->
<g id="edge20" class="edge">
<title>&#45;6&#45;&gt;3</title>
<path fill="none" stroke="red" stroke-width="0.93" d="M197.74,-65.65C211.92,-56.33 235.54,-40.8 252.64,-29.56"/>
<polygon fill="red" stroke="red" stroke-width="0.93" points="254.93,-32.24 261.37,-23.82 251.09,-26.39 254.93,-32.24"/>
</g>
<!-- &#45;7 -->
<g id="node7" class="node">
<title>&#45;7</title>
<polygon fill="lightgray" stroke="black" points="503.5,-83.7 479.5,-83.7 479.5,-65.7 503.5,-65.7 503.5,-83.7"/>
<text text-anchor="middle" x="491.5" y="-72.5" font-family="Times New Roman,serif" font-size="9.00">&#45;7</text>
</g>
<!-- &#45;7&#45;&gt;2 -->
<g id="edge21" class="edge">
<title>&#45;7&#45;&gt;2</title>
<path fill="none" stroke="green" stroke-width="1.11" d="M479.09,-68.88C476.28,-67.81 473.29,-66.7 470.5,-65.7 426.58,-49.99 374.85,-33.03 345.35,-23.49"/>
<polygon fill="green" stroke="green" stroke-width="1.11" points="346.13,-20.07 335.53,-20.33 343.98,-26.73 346.13,-20.07"/>
</g>
<!-- &#45;7&#45;&gt;3 -->
<g id="edge22" class="edge">
<title>&#45;7&#45;&gt;3</title>
<path fill="none" stroke="green" stroke-width="1.04" d="M479.17,-68.63C476.35,-67.57 473.35,-66.53 470.5,-65.7 395.12,-43.65 370.88,-57.68 297.5,-29.7 296.63,-29.37 295.76,-29.01 294.89,-28.63"/>
<polygon fill="green" stroke="green" stroke-width="1.04" points="296.32,-25.43 285.83,-23.97 293.12,-31.65 296.32,-25.43"/>
</g>
<!-- &#45;8 -->
<g id="node8" class="node">
<title>&#45;8</title>
<polygon fill="lightgray" stroke="black" points="371.5,-83.7 347.5,-83.7 347.5,-65.7 371.5,-65.7 371.5,-83.7"/>
<text text-anchor="middle" x="359.5" y="-72.5" font-family="Times New Roman,serif" font-size="9.00">&#45;8</text>
</g>
<!-- &#45;8&#45;&gt;0 -->
<g id="edge23" class="edge">
<title>&#45;8&#45;&gt;0</title>
<path fill="none" stroke="red" stroke-width="0.47" stroke-dasharray="1,5" d="M347.19,-69.03C322.48,-59.62 267.63,-38.5 249.5,-29.7 248.67,-29.29 247.82,-28.87 246.98,-28.44"/>
<polygon fill="red" stroke="red" stroke-width="0.47" points="248.47,-25.27 238.02,-23.53 245.11,-31.4 248.47,-25.27"/>
</g>
<!-- &#45;8&#45;&gt;2 -->
<g id="edge24" class="edge">
<title>&#45;8&#45;&gt;2</title>
<path fill="none" stroke="green" stroke-width="0.41" d="M354.22,-65.65C349.23,-58.07 341.55,-46.37 334.88,-36.22"/>
<polygon fill="green" stroke="green" stroke-width="0.41" points="337.8,-34.28 329.38,-27.84 331.94,-38.12 337.8,-34.28"/>
</g>
<!-- &#45;8&#45;&gt;3 -->
<g id="edge25" class="edge">
<title>&#45;8&#45;&gt;3</title>
<path fill="none" stroke="red" stroke-width="0.22" d="M347.54,-65.65C333.68,-56.33 310.6,-40.8 293.89,-29.56"/>
<polygon fill="red" stroke="red" stroke-width="0.22" points="295.61,-26.5 285.36,-23.82 291.7,-32.31 295.61,-26.5"/>
</g>
<!-- &#45;9 -->
<g id="node9" class="node">
<title>&#45;9</title>
<polygon fill="lightgray" stroke="black" points="239.5,-83.7 215.5,-83.7 215.5,-65.7 239.5,-65.7 239.5,-83.7"/>
<text text-anchor="middle" x="227.5" y="-72.5" font-family="Times New Roman,serif" font-size="9.00">&#45;9</text>
</g>
<!-- &#45;9&#45;&gt;0 -->
<g id="edge26" class="edge">
<title>&#45;9&#45;&gt;0</title>
<path fill="none" stroke="red" stroke-width="0.63" d="M227.22,-65.65C226.99,-59.05 226.66,-49.33 226.34,-40.23"/>
<polygon fill="red" stroke="red" stroke-width="0.63" points="229.83,-39.93 225.99,-30.06 222.84,-40.17 229.83,-39.93"/>
</g>
<!-- &#45;9&#45;&gt;1 -->
<g id="edge27" class="edge">
<title>&#45;9&#45;&gt;1</title>
<path fill="none" stroke="red" stroke-width="0.48" d="M215.82,-65.65C202.36,-56.38 179.99,-40.98 163.69,-29.75"/>
<polygon fill="red" stroke="red" stroke-width="0.48" points="165.57,-26.8 155.35,-24.01 161.6,-32.57 165.57,-26.8"/>
</g>
<!-- &#45;9&#45;&gt;2 -->
<g id="edge28" class="edge">
<title>&#45;9&#45;&gt;2</title>
<path fill="none" stroke="red" stroke-width="0.34" d="M239.79,-66.14C255.2,-56.65 281.86,-40.24 300.53,-28.76"/>
<polygon fill="red" stroke="red" stroke-width="0.34" points="302.53,-31.64 309.21,-23.41 298.86,-25.67 302.53,-31.64"/>
</g>
<!-- &#45;9&#45;&gt;3 -->
<g id="edge29" class="edge">
<title>&#45;9&#45;&gt;3</title>
<path fill="none" stroke="green" stroke-width="0.45" d="M233.9,-65.65C240.21,-57.72 250.09,-45.29 258.4,-34.83"/>
<polygon fill="green" stroke="green" stroke-width="0.45" points="261.15,-37 264.64,-26.99 255.67,-32.64 261.15,-37"/>
</g>
<!-- &#45;10 -->
<g id="node10" class="node">
<title>&#45;10</title>
<polygon fill="lightgray" stroke="black" points="419,-83.7 390,-83.7 390,-65.7 419,-65.7 419,-83.7"/>
<text text-anchor="middle" x="404.5" y="-72.5" font-family="Times New Roman,serif" font-size="9.00">&#45;10</text>
</g>
<!-- &#45;10&#45;&gt;0 -->
<g id="edge30" class="edge">
<title>&#45;10&#45;&gt;0</title>
<path fill="none" stroke="red" stroke-width="0.3" d="M389.82,-68.67C386.75,-67.65 383.53,-66.62 380.5,-65.7 322.73,-48.15 305.21,-52.98 249.5,-29.7 248.65,-29.34 247.78,-28.96 246.92,-28.56"/>
<polygon fill="red" stroke="red" stroke-width="0.3" points="248.37,-25.37 237.9,-23.81 245.11,-31.56 248.37,-25.37"/>
</g>
<!-- &#45;10&#45;&gt;2 -->
<g id="edge31" class="edge">
<title>&#45;10&#45;&gt;2</title>
<path fill="none" stroke="red" stroke-width="0.21" d="M392.96,-65.65C379.65,-56.38 357.55,-40.98 341.45,-29.75"/>
<polygon fill="red" stroke="red" stroke-width="0.21" points="343.42,-26.86 333.21,-24.01 339.41,-32.6 343.42,-26.86"/>
</g>
<!-- &#45;10&#45;&gt;3 -->
<g id="edge32" class="edge">
<title>&#45;10&#45;&gt;3</title>
<path fill="none" stroke="green" stroke-width="0.39" stroke-dasharray="1,5" d="M389.69,-68.32C368.78,-60.58 329.59,-45.47 297.5,-29.7 296.67,-29.29 295.83,-28.86 294.98,-28.43"/>
<polygon fill="green" stroke="green" stroke-width="0.39" points="296.48,-25.26 286.03,-23.5 293.11,-31.39 296.48,-25.26"/>
</g>
<!-- &#45;11 -->
<g id="node11" class="node">
<title>&#45;11</title>
<polygon fill="lightgray" stroke="black" points="29,-83.7 0,-83.7 0,-65.7 29,-65.7 29,-83.7"/>
<text text-anchor="middle" x="14.5" y="-72.5" font-family="Times New Roman,serif" font-size="9.00">&#45;11</text>
</g>
<!-- &#45;11&#45;&gt;0 -->
<g id="edge33" class="edge">
<title>&#45;11&#45;&gt;0</title>
<path fill="none" stroke="red" stroke-width="0.38" d="M29.18,-68.65C32.25,-67.64 35.47,-66.61 38.5,-65.7 96.25,-48.39 164.92,-30.86 200.82,-21.91"/>
<polygon fill="red" stroke="red" stroke-width="0.38" points="202,-25.23 210.87,-19.43 200.32,-18.43 202,-25.23"/>
</g>
<!-- &#45;11&#45;&gt;1 -->
<g id="edge34" class="edge">
<title>&#45;11&#45;&gt;1</title>
<path fill="none" stroke="red" stroke-width="0.14" d="M29.3,-67.06C51.71,-57.01 94.45,-37.84 120.82,-26.02"/>
<polygon fill="red" stroke="red" stroke-width="0.14" points="122.35,-29.17 130.04,-21.88 119.48,-22.78 122.35,-29.17"/>
</g>
<!-- &#45;12 -->
<g id="node12" class="node">
<title>&#45;12</title>
<polygon fill="lightgray" stroke="black" points="287,-83.7 258,-83.7 258,-65.7 287,-65.7 287,-83.7"/>
<text text-anchor="middle" x="272.5" y="-72.5" font-family="Times New Roman,serif" font-size="9.00">&#45;12</text>
</g>
<!-- &#45;12&#45;&gt;0 -->
<g id="edge35" class="edge">
<title>&#45;12&#45;&gt;0</title>
<path fill="none" stroke="red" stroke-width="0.21" d="M265.96,-65.65C259.52,-57.72 249.42,-45.29 240.92,-34.83"/>
<polygon fill="red" stroke="red" stroke-width="0.21" points="243.58,-32.55 234.56,-26.99 238.14,-36.96 243.58,-32.55"/>
</g>
<!-- &#45;12&#45;&gt;1 -->
<g id="edge36" class="edge">
<title>&#45;12&#45;&gt;1</title>
<path fill="none" stroke="green" stroke-width="0.19" d="M257.7,-67.06C235.29,-57.01 192.55,-37.84 166.18,-26.02"/>
<polygon fill="green" stroke="green" stroke-width="0.19" points="167.52,-22.78 156.96,-21.88 164.65,-29.17 167.52,-22.78"/>
</g>
<!-- &#45;12&#45;&gt;2 -->
<g id="edge37" class="edge">
<title>&#45;12&#45;&gt;2</title>
<path fill="none" stroke="red" stroke-width="0.38" d="M279.31,-65.65C286.04,-57.72 296.56,-45.29 305.42,-34.83"/>
<polygon fill="red" stroke="red" stroke-width="0.38" points="308.27,-36.89 312.06,-26.99 302.93,-32.36 308.27,-36.89"/>
</g>
<!-- &#45;12&#45;&gt;3 -->
<g id="edge38" class="edge">
<title>&#45;12&#45;&gt;3</title>
<path fill="none" stroke="red" stroke-width="0.22" d="M272.64,-65.65C272.75,-59.05 272.92,-49.33 273.08,-40.23"/>
<polygon fill="red" stroke="red" stroke-width="0.22" points="276.58,-40.12 273.25,-30.06 269.58,-39.99 276.58,-40.12"/>
</g>
<!-- &#45;13 -->
<g id="node13" class="node">
<title>&#45;13</title>
<polygon fill="lightgray" stroke="black" points="551,-83.7 522,-83.7 522,-65.7 551,-65.7 551,-83.7"/>
<text text-anchor="middle" x="536.5" y="-72.5" font-family="Times New Roman,serif" font-size="9.00">&#45;13</text>
</g>
<!-- &#45;13&#45;&gt;2 -->
<g id="edge39" class="edge">
<title>&#45;13&#45;&gt;2</title>
<path fill="none" stroke="green" stroke-width="0.31" d="M521.83,-68.64C518.76,-67.62 515.53,-66.6 512.5,-65.7 452.99,-48.04 382.08,-30.41 345.69,-21.62"/>
<polygon fill="green" stroke="green" stroke-width="0.31" points="346.51,-18.21 335.97,-19.28 344.87,-25.02 346.51,-18.21"/>
</g>
</g>
</svg>
