<?xml version="1.0" encoding="UTF-8" standalone="no"?>
<!DOCTYPE svg PUBLIC "-//W3C//DTD SVG 1.1//EN"
 "http://www.w3.org/Graphics/SVG/1.1/DTD/svg11.dtd">
<!-- Generated by graphviz version 2.48.0 (20210717.1556)
 -->
<!-- Pages: 1 -->
<svg width="416pt" height="92pt"
 viewBox="0.00 0.00 415.50 91.70" xmlns="http://www.w3.org/2000/svg" xmlns:xlink="http://www.w3.org/1999/xlink">
<g id="graph0" class="graph" transform="scale(1 1) rotate(0) translate(4 87.7)">
<polygon fill="white" stroke="transparent" points="-4,4 -4,-87.7 411.5,-87.7 411.5,4 -4,4"/>
<!-- &#45;1 -->
<g id="node1" class="node">
<title>&#45;1</title>
<polygon fill="lightgray" stroke="black" points="24,-83.7 0,-83.7 0,-65.7 24,-65.7 24,-83.7"/>
<text text-anchor="middle" x="12" y="-72.5" font-family="Times New Roman,serif" font-size="9.00">&#45;1</text>
</g>
<!-- 1 -->
<g id="node12" class="node">
<title>1</title>
<ellipse fill="lightblue" stroke="black" cx="138" cy="-14.85" rx="14.7" ry="14.7"/>
<text text-anchor="middle" x="138" y="-12.65" font-family="Times New Roman,serif" font-size="9.00">1</text>
</g>
<!-- &#45;1&#45;&gt;1 -->
<g id="edge1" class="edge">
<title>&#45;1&#45;&gt;1</title>
<path fill="none" stroke="red" stroke-width="0.27" d="M24.08,-68.15C45.05,-58.52 88.52,-38.57 115.28,-26.28"/>
<polygon fill="red" stroke="red" stroke-width="0.27" points="117.01,-29.34 124.64,-21.99 114.09,-22.98 117.01,-29.34"/>
</g>
<!-- &#45;2 -->
<g id="node2" class="node">
<title>&#45;2</title>
<polygon fill="lightgray" stroke="black" points="234,-83.7 210,-83.7 210,-65.7 234,-65.7 234,-83.7"/>
<text text-anchor="middle" x="222" y="-72.5" font-family="Times New Roman,serif" font-size="9.00">&#45;2</text>
</g>
<!-- 0 -->
<g id="node11" class="node">
<title>0</title>
<ellipse fill="lightblue" stroke="black" cx="186" cy="-14.85" rx="14.7" ry="14.7"/>
<text text-anchor="middle" x="186" y="-12.65" font-family="Times New Roman,serif" font-size="9.00">0</text>
</g>
<!-- &#45;2&#45;&gt;0 -->
<g id="edge2" class="edge">
<title>&#45;2&#45;&gt;0</title>
<path fill="none" stroke="green" stroke-width="0.24" stroke-dasharray="1,5" d="M216.99,-65.65C212.32,-58.14 205.14,-46.61 198.87,-36.53"/>
<polygon fill="green" stroke="green" stroke-width="0.24" points="201.72,-34.49 193.46,-27.84 195.78,-38.18 201.72,-34.49"/>
</g>
<!-- &#45;2&#45;&gt;1 -->
<g id="edge3" class="edge">
<title>&#45;2&#45;&gt;1</title>
<path fill="none" stroke="red" stroke-width="0.48" d="M210.32,-65.65C196.86,-56.38 174.49,-40.98 158.19,-29.75"/>
<polygon fill="red" stroke="red" stroke-width="0.48" points="160.07,-26.8 149.85,-24.01 156.1,-32.57 160.07,-26.8"/>
</g>
<!-- 2 -->
<g id="node13" class="node">
<title>2</title>
<ellipse fill="lightblue" stroke="black" cx="249" cy="-14.85" rx="14.7" ry="14.7"/>
<text text-anchor="middle" x="249" y="-12.65" font-family="Times New Roman,serif" font-size="9.00">2</text>
</g>
<!-- &#45;2&#45;&gt;2 -->
<g id="edge4" class="edge">
<title>&#45;2&#45;&gt;2</title>
<path fill="none" stroke="red" stroke-width="0.85" d="M225.75,-65.65C229.1,-58.48 234.16,-47.64 238.7,-37.91"/>
<polygon fill="red" stroke="red" stroke-width="0.85" points="241.94,-39.26 243,-28.71 235.59,-36.3 241.94,-39.26"/>
</g>
<!-- &#45;3 -->
<g id="node3" class="node">
<title>&#45;3</title>
<polygon fill="lightgray" stroke="black" points="276,-83.7 252,-83.7 252,-65.7 276,-65.7 276,-83.7"/>
<text text-anchor="middle" x="264" y="-72.5" font-family="Times New Roman,serif" font-size="9.00">&#45;3</text>
</g>
<!-- &#45;3&#45;&gt;0 -->
<g id="edge5" class="edge">
<title>&#45;3&#45;&gt;0</title>
<path fill="none" stroke="green" stroke-width="1" d="M253.15,-65.65C240.91,-56.57 220.73,-41.61 205.68,-30.45"/>
<polygon fill="green" stroke="green" stroke-width="1" points="207.63,-27.53 197.51,-24.39 203.46,-33.16 207.63,-27.53"/>
</g>
<!-- &#45;3&#45;&gt;1 -->
<g id="edge6" class="edge">
<title>&#45;3&#45;&gt;1</title>
<path fill="none" stroke="red" stroke-width="0.12" d="M251.86,-68.99C232.53,-61.39 193.71,-45.62 162,-29.7 161.17,-29.28 160.33,-28.85 159.49,-28.41"/>
<polygon fill="red" stroke="red" stroke-width="0.12" points="161,-25.24 150.55,-23.46 157.61,-31.37 161,-25.24"/>
</g>
<!-- &#45;3&#45;&gt;2 -->
<g id="edge7" class="edge">
<title>&#45;3&#45;&gt;2</title>
<path fill="none" stroke="red" stroke-width="0.21" d="M261.91,-65.65C260.16,-58.89 257.56,-48.86 255.15,-39.57"/>
<polygon fill="red" stroke="red" stroke-width="0.21" points="258.46,-38.41 252.57,-29.6 251.69,-40.16 258.46,-38.41"/>
</g>
<!-- &#45;4 -->
<g id="node4" class="node">
<title>&#45;4</title>
<polygon fill="lightgray" stroke="black" points="108,-83.7 84,-83.7 84,-65.7 108,-65.7 108,-83.7"/>
<text text-anchor="middle" x="96" y="-72.5" font-family="Times New Roman,serif" font-size="9.00">&#45;4</text>
</g>
<!-- &#45;4&#45;&gt;0 -->
<g id="edge8" class="edge">
<title>&#45;4&#45;&gt;0</title>
<path fill="none" stroke="red" stroke-width="0.22" d="M108.14,-65.9C122.77,-56.49 147.58,-40.55 165.26,-29.18"/>
<polygon fill="red" stroke="red" stroke-width="0.22" points="167.25,-32.06 173.77,-23.71 163.46,-26.18 167.25,-32.06"/>
</g>
<!-- &#45;4&#45;&gt;1 -->
<g id="edge9" class="edge">
<title>&#45;4&#45;&gt;1</title>
<path fill="none" stroke="green" stroke-width="0.65" d="M101.84,-65.65C107.47,-57.89 116.23,-45.84 123.71,-35.53"/>
<polygon fill="green" stroke="green" stroke-width="0.65" points="126.56,-37.57 129.6,-27.42 120.89,-33.45 126.56,-37.57"/>
</g>
<!-- &#45;5 -->
<g id="node5" class="node">
<title>&#45;5</title>
<polygon fill="lightgray" stroke="black" points="318,-83.7 294,-83.7 294,-65.7 318,-65.7 318,-83.7"/>
<text text-anchor="middle" x="306" y="-72.5" font-family="Times New Roman,serif" font-size="9.00">&#45;5</text>
</g>
<!-- &#45;5&#45;&gt;1 -->
<g id="edge10" class="edge">
<title>&#45;5&#45;&gt;1</title>
<path fill="none" stroke="red" stroke-width="0.4" d="M293.62,-68.8C290.8,-67.73 287.81,-66.64 285,-65.7 231.01,-47.55 214.37,-52.09 162,-29.7 161.15,-29.33 160.29,-28.95 159.43,-28.54"/>
<polygon fill="red" stroke="red" stroke-width="0.4" points="160.89,-25.35 150.41,-23.76 157.61,-31.54 160.89,-25.35"/>
</g>
<!-- &#45;5&#45;&gt;2 -->
<g id="edge11" class="edge">
<title>&#45;5&#45;&gt;2</title>
<path fill="none" stroke="green" stroke-width="0.16" d="M298.07,-65.65C289.9,-57.36 276.9,-44.16 266.33,-33.44"/>
<polygon fill="green" stroke="green" stroke-width="0.16" points="268.68,-30.83 259.17,-26.17 263.69,-35.75 268.68,-30.83"/>
</g>
<!-- &#45;6 -->
<g id="node6" class="node">
<title>&#45;6</title>
<polygon fill="lightgray" stroke="black" points="150,-83.7 126,-83.7 126,-65.7 150,-65.7 150,-83.7"/>
<text text-anchor="middle" x="138" y="-72.5" font-family="Times New Roman,serif" font-size="9.00">&#45;6</text>
</g>
<!-- &#45;6&#45;&gt;0 -->
<g id="edge12" class="edge">
<title>&#45;6&#45;&gt;0</title>
<path fill="none" stroke="red" stroke-width="0.17" stroke-dasharray="1,5" d="M144.67,-65.65C151.26,-57.72 161.57,-45.29 170.25,-34.83"/>
<polygon fill="red" stroke="red" stroke-width="0.17" points="173.06,-36.93 176.75,-26.99 167.67,-32.46 173.06,-36.93"/>
</g>
<!-- &#45;6&#45;&gt;1 -->
<g id="edge13" class="edge">
<title>&#45;6&#45;&gt;1</title>
<path fill="none" stroke="green" stroke-width="0.43" d="M138,-65.65C138,-59.05 138,-49.33 138,-40.23"/>
<polygon fill="green" stroke="green" stroke-width="0.43" points="141.5,-40.06 138,-30.06 134.5,-40.06 141.5,-40.06"/>
</g>
<!-- &#45;6&#45;&gt;2 -->
<g id="edge14" class="edge">
<title>&#45;6&#45;&gt;2</title>
<path fill="none" stroke="green" stroke-width="0.35" d="M150.3,-67.29C168.77,-57.66 203.95,-39.33 226.94,-27.35"/>
<polygon fill="green" stroke="green" stroke-width="0.35" points="228.71,-30.37 235.96,-22.65 225.47,-24.17 228.71,-30.37"/>
</g>
<!-- &#45;7 -->
<g id="node7" class="node">
<title>&#45;7</title>
<polygon fill="lightgray" stroke="black" points="360,-83.7 336,-83.7 336,-65.7 360,-65.7 360,-83.7"/>
<text text-anchor="middle" x="348" y="-72.5" font-family="Times New Roman,serif" font-size="9.00">&#45;7</text>
</g>
<!-- &#45;7&#45;&gt;0 -->
<g id="edge15" class="edge">
<title>&#45;7&#45;&gt;0</title>
<path fill="none" stroke="green" stroke-width="0.11" d="M335.58,-68.91C332.77,-67.84 329.78,-66.72 327,-65.7 281.87,-49.14 270.32,-45.74 225,-29.7 219.88,-27.89 214.39,-25.94 209.18,-24.09"/>
<polygon fill="green" stroke="green" stroke-width="0.11" points="210.31,-20.78 199.71,-20.73 207.97,-27.37 210.31,-20.78"/>
</g>
<!-- &#45;7&#45;&gt;2 -->
<g id="edge16" class="edge">
<title>&#45;7&#45;&gt;2</title>
<path fill="none" stroke="green" stroke-width="0.19" d="M335.86,-66.61C319.55,-57.07 290.29,-39.98 270.28,-28.28"/>
<polygon fill="green" stroke="green" stroke-width="0.19" points="271.95,-25.21 261.55,-23.18 268.42,-31.25 271.95,-25.21"/>
</g>
<!-- &#45;8 -->
<g id="node8" class="node">
<title>&#45;8</title>
<polygon fill="lightgray" stroke="black" points="192,-83.7 168,-83.7 168,-65.7 192,-65.7 192,-83.7"/>
<text text-anchor="middle" x="180" y="-72.5" font-family="Times New Roman,serif" font-size="9.00">&#45;8</text>
</g>
<!-- &#45;8&#45;&gt;0 -->
<g id="edge17" class="edge">
<title>&#45;8&#45;&gt;0</title>
<path fill="none" stroke="green" stroke-width="0.44" d="M180.83,-65.65C181.52,-59.05 182.53,-49.33 183.47,-40.23"/>
<polygon fill="green" stroke="green" stroke-width="0.44" points="186.98,-40.36 184.53,-30.06 180.01,-39.64 186.98,-40.36"/>
</g>
<!-- &#45;8&#45;&gt;1 -->
<g id="edge18" class="edge">
<title>&#45;8&#45;&gt;1</title>
<path fill="none" stroke="green" stroke-width="0.81" d="M174.16,-65.65C168.53,-57.89 159.77,-45.84 152.29,-35.53"/>
<polygon fill="green" stroke="green" stroke-width="0.81" points="155.11,-33.45 146.4,-27.42 149.44,-37.57 155.11,-33.45"/>
</g>
<!-- &#45;8&#45;&gt;2 -->
<g id="edge19" class="edge">
<title>&#45;8&#45;&gt;2</title>
<path fill="none" stroke="green" stroke-width="0.36" stroke-dasharray="1,5" d="M189.59,-65.65C200.04,-56.89 217.02,-42.66 230.15,-31.65"/>
<polygon fill="green" stroke="green" stroke-width="0.36" points="232.71,-34.07 238.12,-24.97 228.21,-28.71 232.71,-34.07"/>
</g>
<!-- &#45;9 -->
<g id="node9" class="node">
<title>&#45;9</title>
<polygon fill="lightgray" stroke="black" points="66,-83.7 42,-83.7 42,-65.7 66,-65.7 66,-83.7"/>
<text text-anchor="middle" x="54" y="-72.5" font-family="Times New Roman,serif" font-size="9.00">&#45;9</text>
</g>
<!-- &#45;9&#45;&gt;0 -->
<g id="edge20" class="edge">
<title>&#45;9&#45;&gt;0</title>
<path fill="none" stroke="green" stroke-width="0.17" d="M66.08,-69.02C90.34,-59.58 144.18,-38.42 162,-29.7 162.83,-29.29 163.67,-28.87 164.52,-28.43"/>
<polygon fill="green" stroke="green" stroke-width="0.17" points="166.39,-31.39 173.47,-23.51 163.02,-25.26 166.39,-31.39"/>
</g>
<!-- &#45;9&#45;&gt;1 -->
<g id="edge21" class="edge">
<title>&#45;9&#45;&gt;1</title>
<path fill="none" stroke="red" stroke-width="0.55" d="M65.68,-65.65C79.14,-56.38 101.51,-40.98 117.81,-29.75"/>
<polygon fill="red" stroke="red" stroke-width="0.55" points="119.9,-32.57 126.15,-24.01 115.93,-26.8 119.9,-32.57"/>
</g>
<!-- &#45;10 -->
<g id="node10" class="node">
<title>&#45;10</title>
<polygon fill="lightgray" stroke="black" points="407.5,-83.7 378.5,-83.7 378.5,-65.7 407.5,-65.7 407.5,-83.7"/>
<text text-anchor="middle" x="393" y="-72.5" font-family="Times New Roman,serif" font-size="9.00">&#45;10</text>
</g>
</g>
</svg>
