<?xml version="1.0" encoding="UTF-8" standalone="no"?>
<!DOCTYPE svg PUBLIC "-//W3C//DTD SVG 1.1//EN"
 "http://www.w3.org/Graphics/SVG/1.1/DTD/svg11.dtd">
<!-- Generated by graphviz version 2.48.0 (20210717.1556)
 -->
<!-- Pages: 1 -->
<svg width="701pt" height="92pt"
 viewBox="0.00 0.00 700.50 91.70" xmlns="http://www.w3.org/2000/svg" xmlns:xlink="http://www.w3.org/1999/xlink">
<g id="graph0" class="graph" transform="scale(1 1) rotate(0) translate(4 87.7)">
<polygon fill="white" stroke="transparent" points="-4,4 -4,-87.7 696.5,-87.7 696.5,4 -4,4"/>
<!-- &#45;1 -->
<g id="node1" class="node">
<title>&#45;1</title>
<polygon fill="lightgray" stroke="black" points="24,-83.7 0,-83.7 0,-65.7 24,-65.7 24,-83.7"/>
<text text-anchor="middle" x="12" y="-72.5" font-family="Times New Roman,serif" font-size="9.00">&#45;1</text>
</g>
<!-- 0 -->
<g id="node17" class="node">
<title>0</title>
<ellipse fill="lightblue" stroke="black" cx="329" cy="-14.85" rx="14.7" ry="14.7"/>
<text text-anchor="middle" x="329" y="-12.65" font-family="Times New Roman,serif" font-size="9.00">0</text>
</g>
<!-- &#45;1&#45;&gt;0 -->
<g id="edge1" class="edge">
<title>&#45;1&#45;&gt;0</title>
<path fill="none" stroke="red" stroke-width="0.53" d="M24.28,-68.47C27.11,-67.43 30.13,-66.43 33,-65.7 151.22,-35.79 189.54,-68.92 305,-29.7 305.88,-29.4 306.76,-29.07 307.64,-28.71"/>
<polygon fill="red" stroke="red" stroke-width="0.53" points="309.36,-31.76 316.74,-24.15 306.23,-25.5 309.36,-31.76"/>
</g>
<!-- 1 -->
<g id="node18" class="node">
<title>1</title>
<ellipse fill="lightblue" stroke="black" cx="233" cy="-14.85" rx="14.7" ry="14.7"/>
<text text-anchor="middle" x="233" y="-12.65" font-family="Times New Roman,serif" font-size="9.00">1</text>
</g>
<!-- &#45;1&#45;&gt;1 -->
<g id="edge2" class="edge">
<title>&#45;1&#45;&gt;1</title>
<path fill="none" stroke="green" stroke-width="0.39" d="M24.35,-68.71C27.17,-67.65 30.17,-66.59 33,-65.7 95.15,-46.19 170.04,-29.22 208.12,-21.04"/>
<polygon fill="green" stroke="green" stroke-width="0.39" points="209.23,-24.39 218.28,-18.89 207.77,-17.54 209.23,-24.39"/>
</g>
<!-- 3 -->
<g id="node20" class="node">
<title>3</title>
<ellipse fill="lightblue" stroke="black" cx="281" cy="-14.85" rx="14.7" ry="14.7"/>
<text text-anchor="middle" x="281" y="-12.65" font-family="Times New Roman,serif" font-size="9.00">3</text>
</g>
<!-- &#45;1&#45;&gt;3 -->
<g id="edge3" class="edge">
<title>&#45;1&#45;&gt;3</title>
<path fill="none" stroke="green" stroke-width="0.6" d="M24.3,-68.53C27.12,-67.48 30.14,-66.47 33,-65.7 130.4,-39.61 161.99,-63.45 257,-29.7 257.87,-29.39 258.75,-29.05 259.63,-28.68"/>
<polygon fill="green" stroke="green" stroke-width="0.6" points="261.37,-31.72 268.71,-24.08 258.21,-25.47 261.37,-31.72"/>
</g>
<!-- &#45;2 -->
<g id="node2" class="node">
<title>&#45;2</title>
<polygon fill="lightgray" stroke="black" points="513,-83.7 489,-83.7 489,-65.7 513,-65.7 513,-83.7"/>
<text text-anchor="middle" x="501" y="-72.5" font-family="Times New Roman,serif" font-size="9.00">&#45;2</text>
</g>
<!-- &#45;2&#45;&gt;0 -->
<g id="edge4" class="edge">
<title>&#45;2&#45;&gt;0</title>
<path fill="none" stroke="green" stroke-width="0.33" d="M488.63,-68.78C485.81,-67.72 482.81,-66.63 480,-65.7 424.31,-47.24 407.04,-52.53 353,-29.7 352.15,-29.34 351.29,-28.95 350.42,-28.55"/>
<polygon fill="green" stroke="green" stroke-width="0.33" points="351.88,-25.36 341.4,-23.79 348.61,-31.55 351.88,-25.36"/>
</g>
<!-- &#45;2&#45;&gt;1 -->
<g id="edge5" class="edge">
<title>&#45;2&#45;&gt;1</title>
<path fill="none" stroke="red" stroke-width="0.25" d="M488.7,-68.53C485.88,-67.48 482.86,-66.47 480,-65.7 383.03,-39.69 351.59,-63.34 257,-29.7 256.13,-29.39 255.25,-29.05 254.37,-28.68"/>
<polygon fill="red" stroke="red" stroke-width="0.25" points="255.79,-25.47 245.29,-24.08 252.63,-31.72 255.79,-25.47"/>
</g>
<!-- 2 -->
<g id="node19" class="node">
<title>2</title>
<ellipse fill="lightblue" stroke="black" cx="377" cy="-14.85" rx="14.7" ry="14.7"/>
<text text-anchor="middle" x="377" y="-12.65" font-family="Times New Roman,serif" font-size="9.00">2</text>
</g>
<!-- &#45;2&#45;&gt;2 -->
<g id="edge6" class="edge">
<title>&#45;2&#45;&gt;2</title>
<path fill="none" stroke="red" stroke-width="0.56" d="M488.8,-68.83C469.76,-61.13 431.96,-45.39 401,-29.7 400.17,-29.28 399.34,-28.85 398.49,-28.4"/>
<polygon fill="red" stroke="red" stroke-width="0.56" points="400,-25.24 389.56,-23.44 396.61,-31.36 400,-25.24"/>
</g>
<!-- &#45;2&#45;&gt;3 -->
<g id="edge7" class="edge">
<title>&#45;2&#45;&gt;3</title>
<path fill="none" stroke="red" stroke-width="0.61" d="M488.68,-68.62C485.85,-67.57 482.85,-66.53 480,-65.7 403.76,-43.49 379.23,-57.9 305,-29.7 304.13,-29.37 303.26,-29.01 302.39,-28.63"/>
<polygon fill="red" stroke="red" stroke-width="0.61" points="303.82,-25.43 293.33,-23.97 300.62,-31.66 303.82,-25.43"/>
</g>
<!-- 4 -->
<g id="node21" class="node">
<title>4</title>
<ellipse fill="lightblue" stroke="black" cx="425" cy="-14.85" rx="14.7" ry="14.7"/>
<text text-anchor="middle" x="425" y="-12.65" font-family="Times New Roman,serif" font-size="9.00">4</text>
</g>
<!-- &#45;2&#45;&gt;4 -->
<g id="edge8" class="edge">
<title>&#45;2&#45;&gt;4</title>
<path fill="none" stroke="red" stroke-width="0.31" d="M490.43,-65.65C478.57,-56.62 459.06,-41.78 444.43,-30.64"/>
<polygon fill="red" stroke="red" stroke-width="0.31" points="446.55,-27.85 436.47,-24.58 442.31,-33.42 446.55,-27.85"/>
</g>
<!-- &#45;3 -->
<g id="node3" class="node">
<title>&#45;3</title>
<polygon fill="lightgray" stroke="black" points="203,-83.7 179,-83.7 179,-65.7 203,-65.7 203,-83.7"/>
<text text-anchor="middle" x="191" y="-72.5" font-family="Times New Roman,serif" font-size="9.00">&#45;3</text>
</g>
<!-- &#45;3&#45;&gt;0 -->
<g id="edge9" class="edge">
<title>&#45;3&#45;&gt;0</title>
<path fill="none" stroke="green" stroke-width="0.55" d="M203.01,-69.12C231.31,-58.33 300.14,-32.02 305,-29.7 305.84,-29.3 306.68,-28.88 307.53,-28.45"/>
<polygon fill="green" stroke="green" stroke-width="0.55" points="309.39,-31.42 316.49,-23.56 306.04,-25.28 309.39,-31.42"/>
</g>
<!-- &#45;3&#45;&gt;1 -->
<g id="edge10" class="edge">
<title>&#45;3&#45;&gt;1</title>
<path fill="none" stroke="green" stroke-width="0.23" stroke-dasharray="1,5" d="M196.84,-65.65C202.47,-57.89 211.23,-45.84 218.71,-35.53"/>
<polygon fill="green" stroke="green" stroke-width="0.23" points="221.56,-37.57 224.6,-27.42 215.89,-33.45 221.56,-37.57"/>
</g>
<!-- &#45;3&#45;&gt;2 -->
<g id="edge11" class="edge">
<title>&#45;3&#45;&gt;2</title>
<path fill="none" stroke="green" stroke-width="0.1" d="M203.35,-68.72C206.17,-67.66 209.17,-66.59 212,-65.7 273.65,-46.15 293.1,-54.09 353,-29.7 353.86,-29.35 354.72,-28.97 355.59,-28.58"/>
<polygon fill="green" stroke="green" stroke-width="0.1" points="357.39,-31.59 364.62,-23.85 354.14,-25.39 357.39,-31.59"/>
</g>
<!-- &#45;3&#45;&gt;3 -->
<g id="edge12" class="edge">
<title>&#45;3&#45;&gt;3</title>
<path fill="none" stroke="red" stroke-width="0.92" d="M203.14,-65.9C217.77,-56.49 242.58,-40.55 260.26,-29.18"/>
<polygon fill="red" stroke="red" stroke-width="0.92" points="262.25,-32.06 268.77,-23.71 258.46,-26.18 262.25,-32.06"/>
</g>
<!-- &#45;3&#45;&gt;4 -->
<g id="edge13" class="edge">
<title>&#45;3&#45;&gt;4</title>
<path fill="none" stroke="red" stroke-width="0.44" d="M203.32,-68.59C206.14,-67.54 209.15,-66.51 212,-65.7 294.27,-42.39 320.85,-59.49 401,-29.7 401.87,-29.38 402.74,-29.02 403.61,-28.65"/>
<polygon fill="red" stroke="red" stroke-width="0.44" points="405.38,-31.68 412.69,-24.01 402.19,-25.45 405.38,-31.68"/>
</g>
<!-- &#45;4 -->
<g id="node4" class="node">
<title>&#45;4</title>
<polygon fill="lightgray" stroke="black" points="645,-83.7 621,-83.7 621,-65.7 645,-65.7 645,-83.7"/>
<text text-anchor="middle" x="633" y="-72.5" font-family="Times New Roman,serif" font-size="9.00">&#45;4</text>
</g>
<!-- &#45;4&#45;&gt;0 -->
<g id="edge14" class="edge">
<title>&#45;4&#45;&gt;0</title>
<path fill="none" stroke="green" stroke-width="0.41" d="M620.71,-68.49C617.89,-67.44 614.87,-66.44 612,-65.7 499.43,-36.83 462.92,-67.44 353,-29.7 352.12,-29.4 351.24,-29.06 350.37,-28.7"/>
<polygon fill="green" stroke="green" stroke-width="0.41" points="351.78,-25.5 341.27,-24.14 348.64,-31.75 351.78,-25.5"/>
</g>
<!-- &#45;4&#45;&gt;2 -->
<g id="edge15" class="edge">
<title>&#45;4&#45;&gt;2</title>
<path fill="none" stroke="green" stroke-width="0.11" d="M620.7,-68.55C617.87,-67.5 614.86,-66.48 612,-65.7 520.23,-40.65 490.49,-61.98 401,-29.7 400.13,-29.38 399.25,-29.04 398.38,-28.67"/>
<polygon fill="green" stroke="green" stroke-width="0.11" points="399.8,-25.46 389.3,-24.06 396.63,-31.71 399.8,-25.46"/>
</g>
<!-- &#45;4&#45;&gt;3 -->
<g id="edge16" class="edge">
<title>&#45;4&#45;&gt;3</title>
<path fill="none" stroke="red" stroke-width="0.73" stroke-dasharray="1,5" d="M620.72,-68.44C617.9,-67.4 614.88,-66.4 612,-65.7 478.57,-33 435.4,-72.92 305,-29.7 304.12,-29.41 303.24,-29.08 302.36,-28.73"/>
<polygon fill="red" stroke="red" stroke-width="0.73" points="303.76,-25.52 293.25,-24.19 300.64,-31.78 303.76,-25.52"/>
</g>
<!-- &#45;4&#45;&gt;4 -->
<g id="edge17" class="edge">
<title>&#45;4&#45;&gt;4</title>
<path fill="none" stroke="red" stroke-width="0.78" d="M620.64,-68.75C617.82,-67.68 614.82,-66.61 612,-65.7 554.63,-47.18 485.81,-30.13 449.78,-21.59"/>
<polygon fill="red" stroke="red" stroke-width="0.78" points="450.23,-18.1 439.7,-19.22 448.63,-24.91 450.23,-18.1"/>
</g>
<!-- &#45;5 -->
<g id="node5" class="node">
<title>&#45;5</title>
<polygon fill="lightgray" stroke="black" points="66,-83.7 42,-83.7 42,-65.7 66,-65.7 66,-83.7"/>
<text text-anchor="middle" x="54" y="-72.5" font-family="Times New Roman,serif" font-size="9.00">&#45;5</text>
</g>
<!-- &#45;5&#45;&gt;0 -->
<g id="edge18" class="edge">
<title>&#45;5&#45;&gt;0</title>
<path fill="none" stroke="green" stroke-width="0.32" d="M66.3,-68.52C69.12,-67.47 72.13,-66.46 75,-65.7 175,-39.14 207.43,-64.14 305,-29.7 305.87,-29.39 306.75,-29.05 307.63,-28.68"/>
<polygon fill="green" stroke="green" stroke-width="0.32" points="309.37,-31.73 316.72,-24.09 306.21,-25.48 309.37,-31.73"/>
</g>
<!-- &#45;5&#45;&gt;1 -->
<g id="edge19" class="edge">
<title>&#45;5&#45;&gt;1</title>
<path fill="none" stroke="green" stroke-width="0.86" d="M66.39,-68.84C69.21,-67.77 72.2,-66.67 75,-65.7 122.14,-49.3 177.98,-32.23 209.06,-22.93"/>
<polygon fill="green" stroke="green" stroke-width="0.86" points="210.38,-26.19 218.96,-19.98 208.38,-19.48 210.38,-26.19"/>
</g>
<!-- &#45;5&#45;&gt;2 -->
<g id="edge20" class="edge">
<title>&#45;5&#45;&gt;2</title>
<path fill="none" stroke="green" stroke-width="0.57" d="M66.28,-68.47C69.11,-67.42 72.12,-66.42 75,-65.7 195.82,-35.31 234.98,-69.61 353,-29.7 353.88,-29.4 354.76,-29.07 355.64,-28.71"/>
<polygon fill="green" stroke="green" stroke-width="0.57" points="357.36,-31.77 364.74,-24.16 354.23,-25.5 357.36,-31.77"/>
</g>
<!-- &#45;5&#45;&gt;3 -->
<g id="edge21" class="edge">
<title>&#45;5&#45;&gt;3</title>
<path fill="none" stroke="green" stroke-width="0.11" d="M66.32,-68.61C69.14,-67.55 72.15,-66.52 75,-65.7 154.25,-42.94 179.81,-58.69 257,-29.7 257.87,-29.37 258.74,-29.02 259.61,-28.64"/>
<polygon fill="green" stroke="green" stroke-width="0.11" points="261.38,-31.67 268.68,-23.99 258.18,-25.44 261.38,-31.67"/>
</g>
<!-- &#45;6 -->
<g id="node6" class="node">
<title>&#45;6</title>
<polygon fill="lightgray" stroke="black" points="245,-83.7 221,-83.7 221,-65.7 245,-65.7 245,-83.7"/>
<text text-anchor="middle" x="233" y="-72.5" font-family="Times New Roman,serif" font-size="9.00">&#45;6</text>
</g>
<!-- &#45;6&#45;&gt;0 -->
<g id="edge22" class="edge">
<title>&#45;6&#45;&gt;0</title>
<path fill="none" stroke="green" stroke-width="0.24" d="M245.16,-66.37C260.94,-56.86 288.73,-40.11 307.97,-28.52"/>
<polygon fill="green" stroke="green" stroke-width="0.24" points="309.88,-31.46 316.64,-23.3 306.27,-25.46 309.88,-31.46"/>
</g>
<!-- &#45;6&#45;&gt;1 -->
<g id="edge23" class="edge">
<title>&#45;6&#45;&gt;1</title>
<path fill="none" stroke="red" stroke-width="0.29" d="M233,-65.65C233,-59.05 233,-49.33 233,-40.23"/>
<polygon fill="red" stroke="red" stroke-width="0.29" points="236.5,-40.06 233,-30.06 229.5,-40.06 236.5,-40.06"/>
</g>
<!-- &#45;6&#45;&gt;2 -->
<g id="edge24" class="edge">
<title>&#45;6&#45;&gt;2</title>
<path fill="none" stroke="green" stroke-width="1.3" d="M245.43,-68.93C248.24,-67.86 251.22,-66.73 254,-65.7 297.88,-49.36 310.56,-49.47 353,-29.7 353.84,-29.31 354.69,-28.9 355.54,-28.47"/>
<polygon fill="green" stroke="green" stroke-width="1.3" points="357.39,-31.45 364.52,-23.6 354.06,-25.29 357.39,-31.45"/>
</g>
<!-- &#45;6&#45;&gt;3 -->
<g id="edge25" class="edge">
<title>&#45;6&#45;&gt;3</title>
<path fill="none" stroke="green" stroke-width="0.16" d="M239.67,-65.65C246.26,-57.72 256.57,-45.29 265.25,-34.83"/>
<polygon fill="green" stroke="green" stroke-width="0.16" points="268.06,-36.93 271.75,-26.99 262.67,-32.46 268.06,-36.93"/>
</g>
<!-- &#45;6&#45;&gt;4 -->
<g id="edge26" class="edge">
<title>&#45;6&#45;&gt;4</title>
<path fill="none" stroke="red" stroke-width="0.2" d="M245.35,-68.7C248.17,-67.64 251.17,-66.58 254,-65.7 318.22,-45.69 338.58,-54.76 401,-29.7 401.86,-29.35 402.73,-28.98 403.59,-28.59"/>
<polygon fill="red" stroke="red" stroke-width="0.2" points="405.38,-31.6 412.63,-23.88 402.15,-25.4 405.38,-31.6"/>
</g>
<!-- &#45;7 -->
<g id="node7" class="node">
<title>&#45;7</title>
<polygon fill="lightgray" stroke="black" points="287,-83.7 263,-83.7 263,-65.7 287,-65.7 287,-83.7"/>
<text text-anchor="middle" x="275" y="-72.5" font-family="Times New Roman,serif" font-size="9.00">&#45;7</text>
</g>
<!-- &#45;7&#45;&gt;0 -->
<g id="edge27" class="edge">
<title>&#45;7&#45;&gt;0</title>
<path fill="none" stroke="green" stroke-width="0.24" d="M282.51,-65.65C290.18,-57.44 302.33,-44.42 312.29,-33.75"/>
<polygon fill="green" stroke="green" stroke-width="0.24" points="315.1,-35.86 319.37,-26.17 309.99,-31.09 315.1,-35.86"/>
</g>
<!-- &#45;7&#45;&gt;1 -->
<g id="edge28" class="edge">
<title>&#45;7&#45;&gt;1</title>
<path fill="none" stroke="green" stroke-width="1.09" d="M269.16,-65.65C263.53,-57.89 254.77,-45.84 247.29,-35.53"/>
<polygon fill="green" stroke="green" stroke-width="1.09" points="250.11,-33.45 241.4,-27.42 244.44,-37.57 250.11,-33.45"/>
</g>
<!-- &#45;7&#45;&gt;2 -->
<g id="edge29" class="edge">
<title>&#45;7&#45;&gt;2</title>
<path fill="none" stroke="red" stroke-width="0.28" stroke-dasharray="1,5" d="M287.18,-66.88C302.55,-58.26 329.77,-42.95 353,-29.7 353.8,-29.24 354.62,-28.77 355.45,-28.3"/>
<polygon fill="red" stroke="red" stroke-width="0.28" points="357.38,-31.22 364.31,-23.2 353.9,-25.15 357.38,-31.22"/>
</g>
<!-- &#45;7&#45;&gt;3 -->
<g id="edge30" class="edge">
<title>&#45;7&#45;&gt;3</title>
<path fill="none" stroke="green" stroke-width="0.22" stroke-dasharray="1,5" d="M275.83,-65.65C276.52,-59.05 277.53,-49.33 278.47,-40.23"/>
<polygon fill="green" stroke="green" stroke-width="0.22" points="281.98,-40.36 279.53,-30.06 275.01,-39.64 281.98,-40.36"/>
</g>
<!-- &#45;7&#45;&gt;4 -->
<g id="edge31" class="edge">
<title>&#45;7&#45;&gt;4</title>
<path fill="none" stroke="red" stroke-width="0.64" d="M287.41,-68.89C290.23,-67.82 293.21,-66.71 296,-65.7 342.39,-48.91 356.09,-50.12 401,-29.7 401.84,-29.32 402.69,-28.91 403.55,-28.49"/>
<polygon fill="red" stroke="red" stroke-width="0.64" points="405.39,-31.47 412.54,-23.65 402.07,-25.31 405.39,-31.47"/>
</g>
<!-- &#45;8 -->
<g id="node8" class="node">
<title>&#45;8</title>
<polygon fill="lightgray" stroke="black" points="329,-83.7 305,-83.7 305,-65.7 329,-65.7 329,-83.7"/>
<text text-anchor="middle" x="317" y="-72.5" font-family="Times New Roman,serif" font-size="9.00">&#45;8</text>
</g>
<!-- &#45;8&#45;&gt;0 -->
<g id="edge32" class="edge">
<title>&#45;8&#45;&gt;0</title>
<path fill="none" stroke="green" stroke-width="0.44" d="M318.67,-65.65C320.07,-58.89 322.15,-48.86 324.08,-39.57"/>
<polygon fill="green" stroke="green" stroke-width="0.44" points="327.54,-40.11 326.15,-29.6 320.69,-38.69 327.54,-40.11"/>
</g>
<!-- &#45;8&#45;&gt;1 -->
<g id="edge33" class="edge">
<title>&#45;8&#45;&gt;1</title>
<path fill="none" stroke="green" stroke-width="1.01" d="M305.32,-65.65C291.86,-56.38 269.49,-40.98 253.19,-29.75"/>
<polygon fill="green" stroke="green" stroke-width="1.01" points="255.07,-26.8 244.85,-24.01 251.1,-32.57 255.07,-26.8"/>
</g>
<!-- &#45;8&#45;&gt;2 -->
<g id="edge34" class="edge">
<title>&#45;8&#45;&gt;2</title>
<path fill="none" stroke="red" stroke-width="0.19" stroke-dasharray="1,5" d="M325.34,-65.65C334.13,-57.18 348.24,-43.58 359.49,-32.73"/>
<polygon fill="red" stroke="red" stroke-width="0.19" points="361.95,-35.22 366.72,-25.76 357.09,-30.18 361.95,-35.22"/>
</g>
<!-- &#45;8&#45;&gt;3 -->
<g id="edge35" class="edge">
<title>&#45;8&#45;&gt;3</title>
<path fill="none" stroke="green" stroke-width="0.32" d="M311.99,-65.65C307.32,-58.14 300.14,-46.61 293.87,-36.53"/>
<polygon fill="green" stroke="green" stroke-width="0.32" points="296.72,-34.49 288.46,-27.84 290.78,-38.18 296.72,-34.49"/>
</g>
<!-- &#45;8&#45;&gt;4 -->
<g id="edge36" class="edge">
<title>&#45;8&#45;&gt;4</title>
<path fill="none" stroke="red" stroke-width="0.2" d="M329.04,-67.59C345.43,-59.22 375.61,-43.66 401,-29.7 401.81,-29.25 402.64,-28.79 403.47,-28.33"/>
<polygon fill="red" stroke="red" stroke-width="0.2" points="405.39,-31.26 412.35,-23.28 401.93,-25.18 405.39,-31.26"/>
</g>
<!-- &#45;9 -->
<g id="node9" class="node">
<title>&#45;9</title>
<polygon fill="lightgray" stroke="black" points="603,-83.7 579,-83.7 579,-65.7 603,-65.7 603,-83.7"/>
<text text-anchor="middle" x="591" y="-72.5" font-family="Times New Roman,serif" font-size="9.00">&#45;9</text>
</g>
<!-- &#45;9&#45;&gt;0 -->
<g id="edge37" class="edge">
<title>&#45;9&#45;&gt;0</title>
<path fill="none" stroke="red" stroke-width="0.69" d="M578.7,-68.54C575.88,-67.49 572.86,-66.47 570,-65.7 475.63,-40.17 445.04,-62.66 353,-29.7 352.13,-29.39 351.25,-29.04 350.38,-28.67"/>
<polygon fill="red" stroke="red" stroke-width="0.69" points="351.79,-25.47 341.29,-24.07 348.63,-31.71 351.79,-25.47"/>
</g>
<!-- &#45;9&#45;&gt;2 -->
<g id="edge38" class="edge">
<title>&#45;9&#45;&gt;2</title>
<path fill="none" stroke="red" stroke-width="0.29" d="M578.67,-68.64C575.85,-67.58 572.84,-66.54 570,-65.7 496.34,-43.96 472.69,-57.23 401,-29.7 400.14,-29.37 399.27,-29.01 398.4,-28.62"/>
<polygon fill="red" stroke="red" stroke-width="0.29" points="399.83,-25.42 389.34,-23.95 396.62,-31.65 399.83,-25.42"/>
</g>
<!-- &#45;9&#45;&gt;3 -->
<g id="edge39" class="edge">
<title>&#45;9&#45;&gt;3</title>
<path fill="none" stroke="green" stroke-width="0.4" d="M578.72,-68.48C575.89,-67.43 572.87,-66.43 570,-65.7 454.82,-36.35 417.48,-68.12 305,-29.7 304.12,-29.4 303.24,-29.07 302.36,-28.71"/>
<polygon fill="green" stroke="green" stroke-width="0.4" points="303.77,-25.5 293.27,-24.15 300.64,-31.76 303.77,-25.5"/>
</g>
<!-- &#45;9&#45;&gt;4 -->
<g id="edge40" class="edge">
<title>&#45;9&#45;&gt;4</title>
<path fill="none" stroke="green" stroke-width="0.72" d="M578.59,-68.89C575.77,-67.82 572.79,-66.71 570,-65.7 527.42,-50.28 477.41,-33.34 448.64,-23.71"/>
<polygon fill="green" stroke="green" stroke-width="0.72" points="449.65,-20.36 439.05,-20.51 447.43,-27 449.65,-20.36"/>
</g>
<!-- &#45;10 -->
<g id="node10" class="node">
<title>&#45;10</title>
<polygon fill="lightgray" stroke="black" points="376.5,-83.7 347.5,-83.7 347.5,-65.7 376.5,-65.7 376.5,-83.7"/>
<text text-anchor="middle" x="362" y="-72.5" font-family="Times New Roman,serif" font-size="9.00">&#45;10</text>
</g>
<!-- &#45;10&#45;&gt;0 -->
<g id="edge41" class="edge">
<title>&#45;10&#45;&gt;0</title>
<path fill="none" stroke="green" stroke-width="0.18" d="M357.41,-65.65C353.22,-58.31 346.85,-47.13 341.19,-37.22"/>
<polygon fill="green" stroke="green" stroke-width="0.18" points="344.08,-35.23 336.09,-28.28 338,-38.7 344.08,-35.23"/>
</g>
<!-- &#45;10&#45;&gt;1 -->
<g id="edge42" class="edge">
<title>&#45;10&#45;&gt;1</title>
<path fill="none" stroke="red" stroke-width="0.46" d="M347.48,-68.28C326.97,-60.49 288.52,-45.32 257,-29.7 256.17,-29.29 255.33,-28.86 254.48,-28.42"/>
<polygon fill="red" stroke="red" stroke-width="0.46" points="255.99,-25.25 245.54,-23.49 252.61,-31.38 255.99,-25.25"/>
</g>
<!-- &#45;10&#45;&gt;2 -->
<g id="edge43" class="edge">
<title>&#45;10&#45;&gt;2</title>
<path fill="none" stroke="red" stroke-width="0.17" d="M364.09,-65.65C365.84,-58.89 368.44,-48.86 370.85,-39.57"/>
<polygon fill="red" stroke="red" stroke-width="0.17" points="374.31,-40.16 373.43,-29.6 367.54,-38.41 374.31,-40.16"/>
</g>
<!-- &#45;10&#45;&gt;3 -->
<g id="edge44" class="edge">
<title>&#45;10&#45;&gt;3</title>
<path fill="none" stroke="red" stroke-width="0.41" d="M350.74,-65.65C337.95,-56.52 316.82,-41.43 301.17,-30.26"/>
<polygon fill="red" stroke="red" stroke-width="0.41" points="302.86,-27.16 292.69,-24.2 298.8,-32.86 302.86,-27.16"/>
</g>
<!-- &#45;10&#45;&gt;4 -->
<g id="edge45" class="edge">
<title>&#45;10&#45;&gt;4</title>
<path fill="none" stroke="green" stroke-width="0.45" d="M370.76,-65.65C379.99,-57.18 394.8,-43.58 406.61,-32.73"/>
<polygon fill="green" stroke="green" stroke-width="0.45" points="409.21,-35.1 414.21,-25.76 404.47,-29.95 409.21,-35.1"/>
</g>
<!-- &#45;11 -->
<g id="node11" class="node">
<title>&#45;11</title>
<polygon fill="lightgray" stroke="black" points="113.5,-83.7 84.5,-83.7 84.5,-65.7 113.5,-65.7 113.5,-83.7"/>
<text text-anchor="middle" x="99" y="-72.5" font-family="Times New Roman,serif" font-size="9.00">&#45;11</text>
</g>
<!-- &#45;11&#45;&gt;0 -->
<g id="edge46" class="edge">
<title>&#45;11&#45;&gt;0</title>
<path fill="none" stroke="red" stroke-width="0.58" stroke-dasharray="1,5" d="M113.5,-68.31C116.3,-67.37 119.23,-66.45 122,-65.7 202.01,-44.03 227.39,-58.81 305,-29.7 305.87,-29.37 306.74,-29.02 307.61,-28.64"/>
<polygon fill="red" stroke="red" stroke-width="0.58" points="309.38,-31.67 316.68,-23.99 306.18,-25.44 309.38,-31.67"/>
</g>
<!-- &#45;11&#45;&gt;1 -->
<g id="edge47" class="edge">
<title>&#45;11&#45;&gt;1</title>
<path fill="none" stroke="green" stroke-width="0.69" stroke-dasharray="1,5" d="M113.6,-67.4C136.91,-57.33 182.75,-37.54 210.35,-25.63"/>
<polygon fill="green" stroke="green" stroke-width="0.69" points="211.83,-28.8 219.62,-21.62 209.05,-22.37 211.83,-28.8"/>
</g>
<!-- &#45;11&#45;&gt;2 -->
<g id="edge48" class="edge">
<title>&#45;11&#45;&gt;2</title>
<path fill="none" stroke="red" stroke-width="0.23" d="M113.98,-68.05C116.62,-67.18 119.37,-66.35 122,-65.7 222.81,-40.53 255.01,-64.25 353,-29.7 353.87,-29.39 354.75,-29.05 355.63,-28.69"/>
<polygon fill="red" stroke="red" stroke-width="0.23" points="357.37,-31.73 364.72,-24.1 354.21,-25.48 357.37,-31.73"/>
</g>
<!-- &#45;11&#45;&gt;3 -->
<g id="edge49" class="edge">
<title>&#45;11&#45;&gt;3</title>
<path fill="none" stroke="green" stroke-width="0.32" d="M113.55,-68.46C116.34,-67.5 119.25,-66.54 122,-65.7 181.37,-47.49 199.61,-53.42 257,-29.7 257.86,-29.34 258.72,-28.97 259.58,-28.57"/>
<polygon fill="green" stroke="green" stroke-width="0.32" points="261.39,-31.57 268.61,-23.82 258.13,-25.38 261.39,-31.57"/>
</g>
<!-- &#45;12 -->
<g id="node12" class="node">
<title>&#45;12</title>
<polygon fill="lightgray" stroke="black" points="160.5,-83.7 131.5,-83.7 131.5,-65.7 160.5,-65.7 160.5,-83.7"/>
<text text-anchor="middle" x="146" y="-72.5" font-family="Times New Roman,serif" font-size="9.00">&#45;12</text>
</g>
<!-- &#45;12&#45;&gt;0 -->
<g id="edge50" class="edge">
<title>&#45;12&#45;&gt;0</title>
<path fill="none" stroke="red" stroke-width="1.29" d="M160.68,-68.65C163.75,-67.64 166.97,-66.61 170,-65.7 229.48,-47.87 247.61,-53.42 305,-29.7 305.86,-29.34 306.72,-28.97 307.58,-28.57"/>
<polygon fill="red" stroke="red" stroke-width="1.29" points="309.39,-31.57 316.61,-23.82 306.13,-25.38 309.39,-31.57"/>
</g>
<!-- &#45;12&#45;&gt;1 -->
<g id="edge51" class="edge">
<title>&#45;12&#45;&gt;1</title>
<path fill="none" stroke="red" stroke-width="0.31" d="M158.1,-65.65C172.12,-56.33 195.47,-40.8 212.38,-29.56"/>
<polygon fill="red" stroke="red" stroke-width="0.31" points="214.62,-32.28 221.01,-23.82 210.74,-26.45 214.62,-32.28"/>
</g>
<!-- &#45;12&#45;&gt;3 -->
<g id="edge52" class="edge">
<title>&#45;12&#45;&gt;3</title>
<path fill="none" stroke="red" stroke-width="0.34" d="M160.66,-68.66C182.18,-61.1 223.41,-45.94 257,-29.7 257.83,-29.3 258.68,-28.87 259.53,-28.44"/>
<polygon fill="red" stroke="red" stroke-width="0.34" points="261.39,-31.41 268.48,-23.53 258.03,-25.27 261.39,-31.41"/>
</g>
<!-- &#45;12&#45;&gt;4 -->
<g id="edge53" class="edge">
<title>&#45;12&#45;&gt;4</title>
<path fill="none" stroke="red" stroke-width="0.36" stroke-dasharray="1,5" d="M160.61,-68.4C163.68,-67.4 166.93,-66.44 170,-65.7 270.97,-41.18 303.01,-64.25 401,-29.7 401.87,-29.39 402.75,-29.05 403.63,-28.69"/>
<polygon fill="red" stroke="red" stroke-width="0.36" points="405.37,-31.73 412.72,-24.1 402.21,-25.48 405.37,-31.73"/>
</g>
<!-- &#45;13 -->
<g id="node13" class="node">
<title>&#45;13</title>
<polygon fill="lightgray" stroke="black" points="692.5,-83.7 663.5,-83.7 663.5,-65.7 692.5,-65.7 692.5,-83.7"/>
<text text-anchor="middle" x="678" y="-72.5" font-family="Times New Roman,serif" font-size="9.00">&#45;13</text>
</g>
<!-- &#45;13&#45;&gt;0 -->
<g id="edge54" class="edge">
<title>&#45;13&#45;&gt;0</title>
<path fill="none" stroke="red" stroke-width="0.21" d="M663.41,-68.31C660.33,-67.33 657.09,-66.39 654,-65.7 522.53,-36.24 480.84,-72.23 353,-29.7 352.12,-29.41 351.24,-29.08 350.36,-28.73"/>
<polygon fill="red" stroke="red" stroke-width="0.21" points="351.76,-25.51 341.25,-24.19 348.64,-31.78 351.76,-25.51"/>
</g>
<!-- &#45;13&#45;&gt;2 -->
<g id="edge55" class="edge">
<title>&#45;13&#45;&gt;2</title>
<path fill="none" stroke="red" stroke-width="0.22" d="M663.4,-68.37C660.32,-67.37 657.08,-66.42 654,-65.7 543.45,-39.63 508.36,-66.76 401,-29.7 400.12,-29.4 399.25,-29.06 398.37,-28.7"/>
<polygon fill="red" stroke="red" stroke-width="0.22" points="399.78,-25.49 389.27,-24.13 396.64,-31.75 399.78,-25.49"/>
</g>
<!-- &#45;13&#45;&gt;4 -->
<g id="edge56" class="edge">
<title>&#45;13&#45;&gt;4</title>
<path fill="none" stroke="green" stroke-width="0.36" d="M663.35,-68.54C660.28,-67.54 657.05,-66.54 654,-65.7 580.37,-45.48 491.63,-28.11 449.5,-20.29"/>
<polygon fill="green" stroke="green" stroke-width="0.36" points="450.07,-16.83 439.6,-18.46 448.8,-23.72 450.07,-16.83"/>
</g>
<!-- &#45;14 -->
<g id="node14" class="node">
<title>&#45;14</title>
<polygon fill="lightgray" stroke="black" points="560.5,-83.7 531.5,-83.7 531.5,-65.7 560.5,-65.7 560.5,-83.7"/>
<text text-anchor="middle" x="546" y="-72.5" font-family="Times New Roman,serif" font-size="9.00">&#45;14</text>
</g>
<!-- &#45;14&#45;&gt;1 -->
<g id="edge57" class="edge">
<title>&#45;14&#45;&gt;1</title>
<path fill="none" stroke="red" stroke-width="0.22" d="M531.4,-68.35C528.33,-67.36 525.08,-66.41 522,-65.7 406.23,-38.79 369.48,-68.12 257,-29.7 256.12,-29.4 255.24,-29.07 254.36,-28.71"/>
<polygon fill="red" stroke="red" stroke-width="0.22" points="255.77,-25.5 245.27,-24.15 252.64,-31.76 255.77,-25.5"/>
</g>
<!-- &#45;14&#45;&gt;2 -->
<g id="edge58" class="edge">
<title>&#45;14&#45;&gt;2</title>
<path fill="none" stroke="green" stroke-width="1.18" d="M531.3,-68.71C528.23,-67.7 525.02,-66.65 522,-65.7 468.49,-48.82 452.54,-51.87 401,-29.7 400.15,-29.33 399.29,-28.94 398.43,-28.54"/>
<polygon fill="green" stroke="green" stroke-width="1.18" points="399.89,-25.35 389.42,-23.75 396.61,-31.53 399.89,-25.35"/>
</g>
<!-- &#45;14&#45;&gt;4 -->
<g id="edge59" class="edge">
<title>&#45;14&#45;&gt;4</title>
<path fill="none" stroke="green" stroke-width="0.22" d="M531.16,-66.61C510.2,-56.58 471.74,-38.2 447.32,-26.52"/>
<polygon fill="green" stroke="green" stroke-width="0.22" points="448.64,-23.27 438.11,-22.12 445.62,-29.59 448.64,-23.27"/>
</g>
<!-- &#45;15 -->
<g id="node15" class="node">
<title>&#45;15</title>
<polygon fill="lightgray" stroke="black" points="423.5,-83.7 394.5,-83.7 394.5,-65.7 423.5,-65.7 423.5,-83.7"/>
<text text-anchor="middle" x="409" y="-72.5" font-family="Times New Roman,serif" font-size="9.00">&#45;15</text>
</g>
<!-- &#45;15&#45;&gt;0 -->
<g id="edge60" class="edge">
<title>&#45;15&#45;&gt;0</title>
<path fill="none" stroke="red" stroke-width="0.64" d="M397.88,-65.65C385.24,-56.52 364.38,-41.43 348.92,-30.26"/>
<polygon fill="red" stroke="red" stroke-width="0.64" points="350.7,-27.22 340.55,-24.2 346.6,-32.9 350.7,-27.22"/>
</g>
<!-- &#45;15&#45;&gt;1 -->
<g id="edge61" class="edge">
<title>&#45;15&#45;&gt;1</title>
<path fill="none" stroke="green" stroke-width="0.14" d="M394.45,-68.48C391.65,-67.52 388.74,-66.56 386,-65.7 329.2,-47.91 311.88,-52.76 257,-29.7 256.15,-29.34 255.29,-28.96 254.42,-28.55"/>
<polygon fill="green" stroke="green" stroke-width="0.14" points="255.88,-25.37 245.4,-23.8 252.61,-31.56 255.88,-25.37"/>
</g>
<!-- &#45;15&#45;&gt;2 -->
<g id="edge62" class="edge">
<title>&#45;15&#45;&gt;2</title>
<path fill="none" stroke="red" stroke-width="0.8" d="M404.55,-65.65C400.49,-58.31 394.3,-47.13 388.82,-37.22"/>
<polygon fill="red" stroke="red" stroke-width="0.8" points="391.78,-35.33 383.87,-28.28 385.65,-38.72 391.78,-35.33"/>
</g>
<!-- &#45;15&#45;&gt;3 -->
<g id="edge63" class="edge">
<title>&#45;15&#45;&gt;3</title>
<path fill="none" stroke="green" stroke-width="0.56" d="M394.28,-68.13C373.89,-60.28 336.07,-45.16 305,-29.7 304.17,-29.29 303.33,-28.86 302.49,-28.42"/>
<polygon fill="green" stroke="green" stroke-width="0.56" points="303.99,-25.25 293.55,-23.48 300.61,-31.38 303.99,-25.25"/>
</g>
<!-- &#45;15&#45;&gt;4 -->
<g id="edge64" class="edge">
<title>&#45;15&#45;&gt;4</title>
<path fill="none" stroke="green" stroke-width="0.22" d="M411.22,-65.65C413.12,-58.82 415.93,-48.64 418.52,-39.27"/>
<polygon fill="green" stroke="green" stroke-width="0.22" points="421.9,-40.18 421.2,-29.6 415.16,-38.31 421.9,-40.18"/>
</g>
<!-- &#45;16 -->
<g id="node16" class="node">
<title>&#45;16</title>
<polygon fill="lightgray" stroke="black" points="470.5,-83.7 441.5,-83.7 441.5,-65.7 470.5,-65.7 470.5,-83.7"/>
<text text-anchor="middle" x="456" y="-72.5" font-family="Times New Roman,serif" font-size="9.00">&#45;16</text>
</g>
<!-- &#45;16&#45;&gt;0 -->
<g id="edge65" class="edge">
<title>&#45;16&#45;&gt;0</title>
<path fill="none" stroke="red" stroke-width="0.22" stroke-dasharray="1,5" d="M441.42,-68.11C421.24,-60.23 383.79,-45.09 353,-29.7 352.17,-29.28 351.33,-28.85 350.49,-28.41"/>
<polygon fill="red" stroke="red" stroke-width="0.22" points="351.99,-25.25 341.55,-23.47 348.61,-31.37 351.99,-25.25"/>
</g>
<!-- &#45;16&#45;&gt;1 -->
<g id="edge66" class="edge">
<title>&#45;16&#45;&gt;1</title>
<path fill="none" stroke="green" stroke-width="0.15" d="M441.49,-68.32C438.69,-67.38 435.77,-66.46 433,-65.7 356.01,-44.54 331.65,-58.02 257,-29.7 256.13,-29.37 255.26,-29.01 254.39,-28.63"/>
<polygon fill="green" stroke="green" stroke-width="0.15" points="255.82,-25.43 245.33,-23.97 252.62,-31.66 255.82,-25.43"/>
</g>
<!-- &#45;16&#45;&gt;2 -->
<g id="edge67" class="edge">
<title>&#45;16&#45;&gt;2</title>
<path fill="none" stroke="green" stroke-width="0.26" d="M445.02,-65.65C432.61,-56.57 412.17,-41.61 396.93,-30.45"/>
<polygon fill="green" stroke="green" stroke-width="0.26" points="398.8,-27.47 388.66,-24.39 394.66,-33.12 398.8,-27.47"/>
</g>
<!-- &#45;16&#45;&gt;3 -->
<g id="edge68" class="edge">
<title>&#45;16&#45;&gt;3</title>
<path fill="none" stroke="red" stroke-width="0.12" d="M441.44,-68.49C438.65,-67.53 435.74,-66.56 433,-65.7 376.62,-47.98 359.46,-52.64 305,-29.7 304.15,-29.34 303.29,-28.96 302.42,-28.55"/>
<polygon fill="red" stroke="red" stroke-width="0.12" points="303.88,-25.36 293.4,-23.79 300.61,-31.55 303.88,-25.36"/>
</g>
<!-- &#45;16&#45;&gt;4 -->
<g id="edge69" class="edge">
<title>&#45;16&#45;&gt;4</title>
<path fill="none" stroke="green" stroke-width="0.34" d="M451.69,-65.65C447.76,-58.31 441.76,-47.13 436.45,-37.22"/>
<polygon fill="green" stroke="green" stroke-width="0.34" points="439.47,-35.44 431.66,-28.28 433.3,-38.74 439.47,-35.44"/>
</g>
</g>
</svg>
