<?xml version="1.0" encoding="UTF-8" standalone="no"?>
<!DOCTYPE svg PUBLIC "-//W3C//DTD SVG 1.1//EN"
 "http://www.w3.org/Graphics/SVG/1.1/DTD/svg11.dtd">
<!-- Generated by graphviz version 2.48.0 (20210717.1556)
 -->
<!-- Pages: 1 -->
<svg width="535pt" height="147pt"
 viewBox="0.00 0.00 535.00 146.95" xmlns="http://www.w3.org/2000/svg" xmlns:xlink="http://www.w3.org/1999/xlink">
<g id="graph0" class="graph" transform="scale(1 1) rotate(0) translate(4 142.95)">
<polygon fill="white" stroke="transparent" points="-4,4 -4,-142.95 531,-142.95 531,4 -4,4"/>
<!-- $\theta_1$ -->
<g id="node1" class="node">
<title>$\theta_1$</title>
<polygon fill="lightgray" stroke="black" points="53,-133.95 0,-133.95 0,-115.95 53,-115.95 53,-133.95"/>
<text text-anchor="middle" x="26.5" y="-122.75" font-family="Times New Roman,serif" font-size="9.00">$theta_1$</text>
</g>
<!-- $\alpha_2$ -->
<g id="node2" class="node">
<title>$\alpha_2$</title>
<polygon fill="lightgray" stroke="black" points="269.5,-133.95 215.5,-133.95 215.5,-115.95 269.5,-115.95 269.5,-133.95"/>
<text text-anchor="middle" x="242.5" y="-122.75" font-family="Times New Roman,serif" font-size="9.00">$alpha_2$</text>
</g>
<!-- A XOR B -->
<g id="node8" class="node">
<title>A XOR B</title>
<ellipse fill="lightblue" stroke="black" cx="206.5" cy="-37.48" rx="37.45" ry="37.45"/>
<text text-anchor="middle" x="206.5" y="-35.28" font-family="Times New Roman,serif" font-size="9.00">A XOR B</text>
</g>
<!-- $\alpha_2$&#45;&gt;A XOR B -->
<g id="edge6" class="edge">
<title>$\alpha_2$&#45;&gt;A XOR B</title>
<path fill="none" stroke="green" stroke-width="0.1" d="M239.05,-115.76C235.65,-107.69 230.18,-94.71 224.69,-81.68"/>
<polygon fill="green" stroke="green" stroke-width="0.1" points="227.83,-80.1 220.72,-72.24 221.38,-82.82 227.83,-80.1"/>
</g>
<!-- 1 -->
<g id="node9" class="node">
<title>1</title>
<ellipse fill="lightblue" stroke="black" cx="277.5" cy="-37.48" rx="14.7" ry="14.7"/>
<text text-anchor="middle" x="277.5" y="-35.28" font-family="Times New Roman,serif" font-size="9.00">1</text>
</g>
<!-- $\alpha_2$&#45;&gt;1 -->
<g id="edge1" class="edge">
<title>$\alpha_2$&#45;&gt;1</title>
<path fill="none" stroke="red" stroke-width="1.45" d="M245.86,-115.76C250.97,-103.26 260.9,-79.01 268.28,-60.99"/>
<polygon fill="red" stroke="red" stroke-width="1.45" points="271.62,-62.07 272.17,-51.48 265.15,-59.41 271.62,-62.07"/>
</g>
<!-- $\alpha_3$ -->
<g id="node3" class="node">
<title>$\alpha_3$</title>
<polygon fill="lightgray" stroke="black" points="125.5,-133.95 71.5,-133.95 71.5,-115.95 125.5,-115.95 125.5,-133.95"/>
<text text-anchor="middle" x="98.5" y="-122.75" font-family="Times New Roman,serif" font-size="9.00">$alpha_3$</text>
</g>
<!-- $\alpha_3$&#45;&gt;A XOR B -->
<g id="edge2" class="edge">
<title>$\alpha_3$&#45;&gt;A XOR B</title>
<path fill="none" stroke="green" stroke-width="1.09" d="M108.86,-115.76C122.71,-104.79 148.02,-84.76 169.4,-67.84"/>
<polygon fill="green" stroke="green" stroke-width="1.09" points="171.7,-70.48 177.37,-61.53 167.36,-64.99 171.7,-70.48"/>
</g>
<!-- $\dot{\alpha}_2$ -->
<g id="node4" class="node">
<title>$\dot{\alpha}_2$</title>
<polygon fill="lightgray" stroke="black" points="363,-133.95 288,-133.95 288,-115.95 363,-115.95 363,-133.95"/>
<text text-anchor="middle" x="325.5" y="-122.75" font-family="Times New Roman,serif" font-size="9.00">$dot{alpha}_2$</text>
</g>
<!-- $\dot{\alpha}_2$&#45;&gt;A XOR B -->
<g id="edge5" class="edge">
<title>$\dot{\alpha}_2$&#45;&gt;A XOR B</title>
<path fill="none" stroke="green" stroke-width="0.17" stroke-dasharray="1,5" d="M313.11,-115.86C298.63,-106.33 274.04,-89.89 253.5,-74.95 250.3,-72.63 247.01,-70.18 243.72,-67.7"/>
<polygon fill="green" stroke="green" stroke-width="0.17" points="245.69,-64.81 235.62,-61.53 241.45,-70.37 245.69,-64.81"/>
</g>
<!-- $\dot{\alpha}_2$&#45;&gt;1 -->
<g id="edge3" class="edge">
<title>$\dot{\alpha}_2$&#45;&gt;1</title>
<path fill="none" stroke="green" stroke-width="0.77" d="M320.9,-115.76C313.7,-102.95 299.57,-77.77 289.38,-59.63"/>
<polygon fill="green" stroke="green" stroke-width="0.77" points="292.42,-57.89 284.47,-50.89 286.31,-61.32 292.42,-57.89"/>
</g>
<!-- $\dot{\alpha}_3$ -->
<g id="node5" class="node">
<title>$\dot{\alpha}_3$</title>
<polygon fill="lightgray" stroke="black" points="456,-133.95 381,-133.95 381,-115.95 456,-115.95 456,-133.95"/>
<text text-anchor="middle" x="418.5" y="-122.75" font-family="Times New Roman,serif" font-size="9.00">$dot{alpha}_3$</text>
</g>
<!-- $\lambda_2$ -->
<g id="node6" class="node">
<title>$\lambda_2$</title>
<polygon fill="lightgray" stroke="black" points="527,-138.95 474,-138.95 474,-110.95 527,-110.95 527,-138.95"/>
<text text-anchor="start" x="482" y="-127.75" font-family="Times New Roman,serif" font-size="9.00">$</text>
<text text-anchor="middle" x="500.5" y="-117.75" font-family="Times New Roman,serif" font-size="9.00">ambda_2$</text>
</g>
<!-- $\lambda_3$ -->
<g id="node7" class="node">
<title>$\lambda_3$</title>
<polygon fill="lightgray" stroke="black" points="197,-138.95 144,-138.95 144,-110.95 197,-110.95 197,-138.95"/>
<text text-anchor="start" x="152" y="-127.75" font-family="Times New Roman,serif" font-size="9.00">$</text>
<text text-anchor="middle" x="170.5" y="-117.75" font-family="Times New Roman,serif" font-size="9.00">ambda_3$</text>
</g>
<!-- $\lambda_3$&#45;&gt;A XOR B -->
<g id="edge4" class="edge">
<title>$\lambda_3$&#45;&gt;A XOR B</title>
<path fill="none" stroke="red" stroke-width="0.1" stroke-dasharray="1,5" d="M176.12,-110.6C179.46,-102.68 183.89,-92.16 188.34,-81.6"/>
<polygon fill="red" stroke="red" stroke-width="0.1" points="191.56,-82.96 192.22,-72.38 185.11,-80.24 191.56,-82.96"/>
</g>
</g>
</svg>
